<svg viewBox="0 0 1024 1024" xmlns="http://www.w3.org/2000/svg">
  <!-- Background rounded square -->
  <rect width="1024" height="1024" rx="200" ry="200" fill="#326771"/>

  <!-- Stomach silhouette: a rounded, slightly asymmetric blob that reads as
       a digestive organ. Centered at (512, 540), roughly 360×380 bounding box.
       Drawn as a closed filled path in the accent teal. -->
  <path
    d="M 460 240
       C 460 210, 480 195, 512 195
       C 544 195, 564 210, 564 240
       L 564 270
       C 640 278, 700 330, 700 430
       C 700 560, 640 660, 540 700
       C 520 750, 525 800, 550 830
       C 565 848, 555 875, 530 878
       C 505 881, 490 862, 500 835
       C 515 800, 510 750, 490 700
       C 395 655, 340 560, 340 430
       C 340 330, 400 278, 470 270
       L 460 240 Z"
    fill="#5BC0BE"
  />
</svg>
